<svg width="280" height="284" viewBox="0 0 700 704" fill="none" xmlns="http://www.w3.org/2000/svg">
<path d="M270.784 704C420.333 704 541.567 683.415 541.567 658.023C541.567 632.63 420.333 612.046 270.784 612.046C121.234 612.046 0 632.63 0 658.023C0 683.415 121.234 704 270.784 704Z" fill="#3F3D56"/>
<path d="M435.361 508.702C581.517 508.702 700 394.825 700 254.351C700 113.877 581.517 0 435.361 0C289.204 0 170.721 113.877 170.721 254.351C170.721 394.825 289.204 508.702 435.361 508.702Z" fill="#3F3D56"/>
<path opacity="0.05" d="M435.36 464.326C556.017 464.326 653.829 370.317 653.829 254.351C653.829 138.385 556.017 44.3762 435.36 44.3762C314.704 44.3762 216.892 138.385 216.892 254.351C216.892 370.317 314.704 464.326 435.36 464.326Z" fill="black"/>
<path opacity="0.05" d="M435.36 426.444C534.249 426.444 614.414 349.395 614.414 254.351C614.414 159.307 534.249 82.2582 435.36 82.2582C336.472 82.2582 256.307 159.307 256.307 254.351C256.307 349.395 336.472 426.444 435.36 426.444Z" fill="black"/>
<path opacity="0.05" d="M435.361 377.738C506.262 377.738 563.739 322.496 563.739 254.351C563.739 186.206 506.262 130.964 435.361 130.964C364.459 130.964 306.982 186.206 306.982 254.351C306.982 322.496 364.459 377.738 435.361 377.738Z" fill="black"/>
<path d="M173.065 277.114C173.065 277.114 152.259 333.402 161.506 353.399C170.753 373.396 185.394 392.653 185.394 392.653C185.394 392.653 180 280.817 173.065 277.114Z" fill="#D0CDE1"/>
<path opacity="0.1" d="M173.065 277.114C173.065 277.114 152.259 333.402 161.506 353.399C170.753 373.396 185.394 392.653 185.394 392.653C185.394 392.653 180 280.817 173.065 277.114Z" fill="black"/>
<path d="M187.706 407.465C187.706 407.465 186.165 421.537 185.394 422.278C184.624 423.019 186.165 424.5 185.394 426.722C184.624 428.944 183.853 431.906 185.394 432.647C186.935 433.387 176.918 498.563 176.918 498.563C176.918 498.563 152.259 529.67 162.277 578.551L165.359 628.174C165.359 628.174 189.247 629.655 189.247 621.508C189.247 621.508 187.706 611.88 187.706 607.436C187.706 602.992 191.559 602.992 189.247 600.77C186.935 598.549 186.935 597.067 186.935 597.067C186.935 597.067 190.788 594.105 190.018 593.364C189.247 592.623 196.953 540.039 196.953 540.039C196.953 540.039 205.43 531.892 205.43 527.448V523.004C205.43 523.004 209.283 513.376 209.283 512.635C209.283 511.894 230.089 466.716 230.089 466.716L238.565 499.304L247.812 545.964C247.812 545.964 252.436 588.18 261.683 604.474C261.683 604.474 277.865 657.799 277.865 656.318C277.865 654.837 304.836 651.134 304.065 644.468C303.295 637.802 287.883 544.482 287.883 544.482L291.736 405.984L187.706 407.465Z" fill="#2F2E41"/>
<path d="M166.9 624.471C166.9 624.471 146.094 663.724 159.965 665.206C173.835 666.687 179.23 666.687 185.394 660.762C188.765 657.523 195.59 653.176 201.085 649.902C204.34 647.993 206.971 645.241 208.674 641.961C210.376 638.681 211.083 635.006 210.712 631.358C210.306 627.734 208.897 624.748 205.43 624.471C196.183 623.73 185.394 615.583 185.394 615.583L166.9 624.471Z" fill="#2F2E41"/>
<path d="M281.718 653.355C281.718 653.355 260.912 692.609 274.783 694.09C288.654 695.571 294.048 695.572 300.212 689.646C303.583 686.407 310.408 682.061 315.903 678.787C319.159 676.878 321.789 674.125 323.492 670.845C325.195 667.566 325.901 663.891 325.531 660.242C325.124 656.619 323.715 653.633 320.248 653.355C311.001 652.615 300.212 644.468 300.212 644.468L281.718 653.355Z" fill="#2F2E41"/>
<path d="M259.728 212.876C277.618 212.876 292.121 198.937 292.121 181.743C292.121 164.548 277.618 150.609 259.728 150.609C241.838 150.609 227.336 164.548 227.336 181.743C227.336 198.937 241.838 212.876 259.728 212.876Z" fill="#FFB8B8"/>
<path d="M238.905 191.973C238.905 191.973 215.767 232.891 213.916 232.891C212.065 232.891 255.564 246.234 255.564 246.234C255.564 246.234 267.595 207.094 269.446 203.536L238.905 191.973Z" fill="#FFB8B8"/>
<path d="M274.398 236.749C274.398 236.749 228.162 212.308 223.538 213.049C218.915 213.79 169.597 255.265 170.368 272.3C171.138 289.334 177.303 317.478 177.303 317.478C177.303 317.478 179.615 395.985 184.238 396.726C188.862 397.467 183.468 410.798 185.009 410.798C186.55 410.798 292.892 410.798 293.662 408.576C294.433 406.354 274.398 236.749 274.398 236.749Z" fill="#D0CDE1"/>
<path d="M300.212 412.65C300.212 412.65 314.854 455.606 302.524 454.125C290.195 452.644 284.801 417.093 284.801 417.093L300.212 412.65Z" fill="#FFB8B8"/>
<path d="M260.912 234.157C260.912 234.157 232.4 240.082 237.024 277.114C241.647 314.145 250.124 351.177 250.124 351.177L278.636 411.168L281.718 422.278L302.524 417.093L287.112 331.18C287.112 331.18 281.718 239.342 274.783 236.379C270.409 234.587 265.654 233.825 260.912 234.157V234.157Z" fill="#D0CDE1"/>
<path opacity="0.1" d="M243.574 350.066L279.021 410.798L249.156 346.803L243.574 350.066Z" fill="black"/>
<path d="M291.978 172.576L292.085 170.197L297.009 171.374C296.956 170.611 296.732 169.867 296.351 169.195C295.97 168.523 295.442 167.938 294.803 167.481L300.048 167.199C295.646 161.188 290.023 156.096 283.517 152.232C277.011 148.367 269.758 145.811 262.196 144.716C250.85 143.135 238.217 145.422 230.437 153.515C226.663 157.44 224.292 162.432 222.606 167.525C219.499 176.904 218.866 188.085 225.344 195.71C231.927 203.458 243.427 204.976 253.788 205.935C257.433 206.273 261.254 206.587 264.632 205.227C265.008 201.503 264.512 197.745 263.18 194.229C262.626 193.141 262.361 191.937 262.409 190.726C262.869 187.763 266.981 187.017 270.07 187.417C273.158 187.818 276.872 188.43 278.901 186.157C280.299 184.591 280.217 182.311 280.402 180.255C280.906 174.659 291.925 173.749 291.978 172.576Z" fill="#2F2E41"/>
<path d="M490.658 664.35C511.503 664.35 528.401 648.109 528.401 628.074C528.401 608.04 511.503 591.799 490.658 591.799C469.813 591.799 452.915 608.04 452.915 628.074C452.915 648.109 469.813 664.35 490.658 664.35Z" fill="#34D399"/>
<path d="M47.3981 651.696C68.243 651.696 85.1411 635.454 85.1411 615.42C85.1411 595.386 68.243 579.144 47.3981 579.144C26.5533 579.144 9.65518 595.386 9.65518 615.42C9.65518 635.454 26.5533 651.696 47.3981 651.696Z" fill="#34D399"/>
<path d="M47.3981 593.486C62.4258 593.486 74.6081 581.777 74.6081 567.334C74.6081 552.89 62.4258 541.182 47.3981 541.182C32.3704 541.182 20.1881 552.89 20.1881 567.334C20.1881 581.777 32.3704 593.486 47.3981 593.486Z" fill="#34D399"/>
<path d="M47.3981 545.4C58.0629 545.4 66.7085 537.09 66.7085 526.84C66.7085 516.59 58.0629 508.28 47.3981 508.28C36.7333 508.28 28.0878 516.59 28.0878 526.84C28.0878 537.09 36.7333 545.4 47.3981 545.4Z" fill="#34D399"/>
</svg>
